<svg xmlns="http://www.w3.org/2000/svg" viewBox="0 0 573.99 206.12"><defs><style>.cls-1{fill:#fff;}.cls-2{fill:none;}</style></defs><g id="Layer_2" data-name="Layer 2"><g id="Images"><path class="cls-1" d="M75.27,51.88V81.25H72.8c-26.65.24-40.23,21.22-40.23,50.59v71.32H0V55.09H32.57V68.42C42.69,57.8,56.76,51.88,75.27,51.88Z"/><path class="cls-1" d="M220.62,55.09V203.16H188v-8.89c-9.37,7.65-21.71,11.85-36.77,11.85-41,0-71.07-31.59-71.07-77s29.37-77.24,71.07-77.24c15.06,0,27.4,4.2,36.77,12.09V55.09Zm-31.1,74c0-27.88-12.83-47.87-38.25-47.87-25.66,0-38.49,20-38.49,47.87,0,28.14,13.82,47.88,38.49,47.88C175.71,177,189.52,157.26,189.52,129.12Z"/><path class="cls-2" d="M281.22,35.1H248.65V5.73h32.57Zm0,168.06H248.65V55.09h32.57Z"/><path class="cls-1" d="M427.65,159.48c0,27.39-26.9,46.64-63.17,46.64-35.05,0-61-20.48-62.93-50.34h32.33c.74,12.58,11.59,21.22,30.6,21.22,19.49,0,30.6-7.16,30.6-17.52,0-10.12-14.07-13.82-30.6-17.77-40.47-10.12-61-18.26-61-44.67,0-26.65,23.69-45.16,60-45.16,32.33,0,56.51,19.25,59.72,47.63H390.39c-2.47-11.11-11.85-18.26-26.9-18.26C344,81.25,336.1,87.66,336.1,97c0,9.13,12.09,12.09,28.38,16C401.74,122,427.65,131.84,427.65,159.48Z"/><path class="cls-1" d="M574,135.05V140H468.37c3.21,22.21,16.29,37,37.76,37,16.28,0,29.12-8.89,35.29-22.95L570,165.65c-11.6,24.92-35.29,40.47-63.91,40.47-41,0-71.07-31.59-71.07-77s29.36-77.24,71.07-77.24C550.05,51.88,574,86.43,574,135.05ZM469.85,110.61h71.07c-4.19-18-15.54-29.36-34.79-29.36C486.63,81.25,474.54,92.6,469.85,110.61Z"/><circle class="cls-1" cx="264.93" cy="28.98" r="28.98"/><circle class="cls-1" cx="264.93" cy="94.4" r="15.44"/><circle class="cls-1" cx="264.93" cy="140.5" r="11.63"/><circle class="cls-1" cx="264.93" cy="175.55" r="6.75"/><circle class="cls-1" cx="264.93" cy="202.32" r="3.79"/></g></g></svg>